<mxfile host="app.diagrams.net" modified="2022-03-05T06:06:10.763Z" agent="5.0 (Windows NT 10.0; Win64; x64) AppleWebKit/537.36 (KHTML, like Gecko) Chrome/98.0.4758.102 Safari/537.36" etag="W0SumqFnUJYVYTEP0OKx" version="16.6.5" type="github">
  <diagram name="Page-1" id="edf60f1a-56cd-e834-aa8a-f176f3a09ee4">
    <mxGraphModel dx="1304" dy="1391" grid="1" gridSize="10" guides="1" tooltips="1" connect="1" arrows="1" fold="1" page="1" pageScale="1" pageWidth="1100" pageHeight="850" background="none" math="0" shadow="0">
      <root>
        <mxCell id="0" />
        <mxCell id="1" parent="0" />
        <mxCell id="60e70716793133e9-32" style="edgeStyle=orthogonalEdgeStyle;rounded=0;html=1;labelBackgroundColor=none;startSize=5;endArrow=classicThin;endFill=1;endSize=5;jettySize=auto;orthogonalLoop=1;strokeWidth=1;fontFamily=Verdana;fontSize=8;startArrow=none;" parent="1" source="6LrhM2uFNjkHdCFqrpvI-6" target="60e70716793133e9-5" edge="1">
          <mxGeometry relative="1" as="geometry">
            <Array as="points">
              <mxPoint x="510" y="150" />
              <mxPoint x="510" y="150" />
            </Array>
          </mxGeometry>
        </mxCell>
        <mxCell id="6LrhM2uFNjkHdCFqrpvI-68" style="edgeStyle=orthogonalEdgeStyle;rounded=0;orthogonalLoop=1;jettySize=auto;html=1;entryX=0.25;entryY=0;entryDx=0;entryDy=0;" edge="1" parent="1" source="60e70716793133e9-4" target="6LrhM2uFNjkHdCFqrpvI-61">
          <mxGeometry relative="1" as="geometry">
            <Array as="points">
              <mxPoint x="1010" y="90" />
            </Array>
          </mxGeometry>
        </mxCell>
        <mxCell id="6LrhM2uFNjkHdCFqrpvI-77" style="edgeStyle=orthogonalEdgeStyle;rounded=0;orthogonalLoop=1;jettySize=auto;html=1;entryX=0.5;entryY=0;entryDx=0;entryDy=0;" edge="1" parent="1" source="60e70716793133e9-4" target="6LrhM2uFNjkHdCFqrpvI-76">
          <mxGeometry relative="1" as="geometry">
            <mxPoint x="800" y="290" as="targetPoint" />
          </mxGeometry>
        </mxCell>
        <mxCell id="60e70716793133e9-4" value="User" style="rounded=0;whiteSpace=wrap;html=1;shadow=1;labelBackgroundColor=none;strokeWidth=1;fontFamily=Verdana;fontSize=8;align=center;" parent="1" vertex="1">
          <mxGeometry x="850" y="60" width="120" height="60" as="geometry" />
        </mxCell>
        <mxCell id="60e70716793133e9-33" value="Yes" style="edgeStyle=orthogonalEdgeStyle;rounded=0;html=1;labelBackgroundColor=none;startSize=5;endArrow=classicThin;endFill=1;endSize=5;jettySize=auto;orthogonalLoop=1;strokeWidth=1;fontFamily=Verdana;fontSize=8" parent="1" source="60e70716793133e9-5" edge="1">
          <mxGeometry x="-0.7778" y="10" relative="1" as="geometry">
            <mxPoint as="offset" />
            <mxPoint x="400" y="440" as="targetPoint" />
            <Array as="points">
              <mxPoint x="510" y="230" />
              <mxPoint x="400" y="230" />
            </Array>
          </mxGeometry>
        </mxCell>
        <mxCell id="60e70716793133e9-5" value="Login" style="rhombus;whiteSpace=wrap;html=1;rounded=0;shadow=1;labelBackgroundColor=none;strokeWidth=1;fontFamily=Verdana;fontSize=8;align=center;" parent="1" vertex="1">
          <mxGeometry x="460" y="160" width="100" height="60" as="geometry" />
        </mxCell>
        <mxCell id="60e70716793133e9-38" style="edgeStyle=orthogonalEdgeStyle;rounded=0;html=1;labelBackgroundColor=none;startSize=5;endArrow=classicThin;endFill=1;endSize=5;jettySize=auto;orthogonalLoop=1;strokeWidth=1;fontFamily=Verdana;fontSize=8" parent="1" source="60e70716793133e9-9" target="60e70716793133e9-11" edge="1">
          <mxGeometry relative="1" as="geometry" />
        </mxCell>
        <mxCell id="60e70716793133e9-9" value="Create a work order" style="whiteSpace=wrap;html=1;rounded=0;shadow=1;labelBackgroundColor=none;strokeWidth=1;fontFamily=Verdana;fontSize=8;align=center;" parent="1" vertex="1">
          <mxGeometry x="100" y="630" width="120" height="40" as="geometry" />
        </mxCell>
        <mxCell id="60e70716793133e9-10" value="Manage Restaurants" style="whiteSpace=wrap;html=1;rounded=0;shadow=1;labelBackgroundColor=none;strokeWidth=1;fontFamily=Verdana;fontSize=8;align=center;" parent="1" vertex="1">
          <mxGeometry x="380" y="320" width="120" height="40" as="geometry" />
        </mxCell>
        <mxCell id="60e70716793133e9-41" style="edgeStyle=orthogonalEdgeStyle;rounded=0;html=1;labelBackgroundColor=none;startSize=5;endArrow=classicThin;endFill=1;endSize=5;jettySize=auto;orthogonalLoop=1;strokeWidth=1;fontFamily=Verdana;fontSize=8" parent="1" source="60e70716793133e9-11" target="60e70716793133e9-13" edge="1">
          <mxGeometry relative="1" as="geometry" />
        </mxCell>
        <mxCell id="60e70716793133e9-11" value="Add materials to work order processes" style="whiteSpace=wrap;html=1;rounded=0;shadow=1;labelBackgroundColor=none;strokeWidth=1;fontFamily=Verdana;fontSize=8;align=center;spacing=6;" parent="1" vertex="1">
          <mxGeometry x="170" y="630" width="120" height="40" as="geometry" />
        </mxCell>
        <mxCell id="60e70716793133e9-12" value="Manage Users" style="whiteSpace=wrap;html=1;rounded=0;shadow=1;labelBackgroundColor=none;strokeWidth=1;fontFamily=Verdana;fontSize=8;align=center;spacing=6;" parent="1" vertex="1">
          <mxGeometry x="380" y="410" width="120" height="40" as="geometry" />
        </mxCell>
        <mxCell id="60e70716793133e9-42" style="edgeStyle=orthogonalEdgeStyle;rounded=0;html=1;labelBackgroundColor=none;startSize=5;endArrow=classicThin;endFill=1;endSize=5;jettySize=auto;orthogonalLoop=1;strokeWidth=1;fontFamily=Verdana;fontSize=8" parent="1" source="60e70716793133e9-13" target="60e70716793133e9-14" edge="1">
          <mxGeometry relative="1" as="geometry" />
        </mxCell>
        <mxCell id="60e70716793133e9-13" value="Monitor work orders" style="whiteSpace=wrap;html=1;rounded=0;shadow=1;labelBackgroundColor=none;strokeWidth=1;fontFamily=Verdana;fontSize=8;align=center;" parent="1" vertex="1">
          <mxGeometry x="220" y="680" width="120" height="40" as="geometry" />
        </mxCell>
        <mxCell id="60e70716793133e9-43" value="Yes" style="edgeStyle=orthogonalEdgeStyle;rounded=0;html=1;labelBackgroundColor=none;startSize=5;endArrow=classicThin;endFill=1;endSize=5;jettySize=auto;orthogonalLoop=1;strokeWidth=1;fontFamily=Verdana;fontSize=8" parent="1" source="60e70716793133e9-14" target="60e70716793133e9-15" edge="1">
          <mxGeometry x="-0.6667" y="10" relative="1" as="geometry">
            <mxPoint as="offset" />
          </mxGeometry>
        </mxCell>
        <mxCell id="60e70716793133e9-44" value="No" style="edgeStyle=orthogonalEdgeStyle;rounded=0;html=1;labelBackgroundColor=none;startSize=5;endArrow=classicThin;endFill=1;endSize=5;jettySize=auto;orthogonalLoop=1;strokeWidth=1;fontFamily=Verdana;fontSize=8" parent="1" source="60e70716793133e9-14" target="60e70716793133e9-16" edge="1">
          <mxGeometry x="-0.5" y="-10" relative="1" as="geometry">
            <mxPoint as="offset" />
          </mxGeometry>
        </mxCell>
        <mxCell id="60e70716793133e9-14" value="Material&amp;nbsp;&lt;div&gt;quantities not&amp;nbsp;&lt;/div&gt;&lt;div&gt;in stock?&lt;/div&gt;" style="rhombus;whiteSpace=wrap;html=1;rounded=0;shadow=1;labelBackgroundColor=none;strokeWidth=1;fontFamily=Verdana;fontSize=8;align=center;" parent="1" vertex="1">
          <mxGeometry x="290" y="570" width="100" height="60" as="geometry" />
        </mxCell>
        <mxCell id="60e70716793133e9-45" style="edgeStyle=orthogonalEdgeStyle;rounded=0;html=1;labelBackgroundColor=none;startSize=5;endArrow=classicThin;endFill=1;endSize=5;jettySize=auto;orthogonalLoop=1;strokeWidth=1;fontFamily=Verdana;fontSize=8" parent="1" source="60e70716793133e9-15" target="60e70716793133e9-16" edge="1">
          <mxGeometry relative="1" as="geometry">
            <Array as="points">
              <mxPoint x="510" y="650" />
              <mxPoint x="340" y="650" />
            </Array>
          </mxGeometry>
        </mxCell>
        <mxCell id="60e70716793133e9-15" value="Procedure or&amp;nbsp;&lt;div&gt;transfer materials&lt;/div&gt;" style="whiteSpace=wrap;html=1;rounded=0;shadow=1;labelBackgroundColor=none;strokeWidth=1;fontFamily=Verdana;fontSize=8;align=center;" parent="1" vertex="1">
          <mxGeometry x="450" y="580" width="120" height="40" as="geometry" />
        </mxCell>
        <mxCell id="60e70716793133e9-46" style="edgeStyle=orthogonalEdgeStyle;rounded=0;html=1;labelBackgroundColor=none;startSize=5;endArrow=classicThin;endFill=1;endSize=5;jettySize=auto;orthogonalLoop=1;strokeWidth=1;fontFamily=Verdana;fontSize=8" parent="1" source="60e70716793133e9-16" target="60e70716793133e9-17" edge="1">
          <mxGeometry relative="1" as="geometry" />
        </mxCell>
        <mxCell id="60e70716793133e9-16" value="Change status to&lt;div&gt;In Process&lt;/div&gt;" style="whiteSpace=wrap;html=1;rounded=0;shadow=1;labelBackgroundColor=none;strokeWidth=1;fontFamily=Verdana;fontSize=8;align=center;" parent="1" vertex="1">
          <mxGeometry x="280" y="670" width="120" height="40" as="geometry" />
        </mxCell>
        <mxCell id="60e70716793133e9-47" value="Yes" style="edgeStyle=orthogonalEdgeStyle;rounded=0;html=1;labelBackgroundColor=none;startSize=5;endArrow=classicThin;endFill=1;endSize=5;jettySize=auto;orthogonalLoop=1;strokeWidth=1;fontFamily=Verdana;fontSize=8" parent="1" source="60e70716793133e9-17" target="60e70716793133e9-18" edge="1">
          <mxGeometry x="-0.6667" y="10" relative="1" as="geometry">
            <mxPoint as="offset" />
          </mxGeometry>
        </mxCell>
        <mxCell id="60e70716793133e9-50" value="No" style="edgeStyle=orthogonalEdgeStyle;rounded=0;html=1;labelBackgroundColor=none;startSize=5;endArrow=classicThin;endFill=1;endSize=5;jettySize=auto;orthogonalLoop=1;strokeWidth=1;fontFamily=Verdana;fontSize=8" parent="1" source="60e70716793133e9-17" target="60e70716793133e9-19" edge="1">
          <mxGeometry x="-1" y="-10" relative="1" as="geometry">
            <mxPoint as="offset" />
          </mxGeometry>
        </mxCell>
        <mxCell id="60e70716793133e9-17" value="Step&amp;nbsp;&lt;div&gt;performed by&amp;nbsp;&lt;/div&gt;&lt;div&gt;outside&amp;nbsp;&lt;/div&gt;&lt;div&gt;vendor?&lt;/div&gt;" style="rhombus;whiteSpace=wrap;html=1;rounded=0;shadow=1;labelBackgroundColor=none;strokeWidth=1;fontFamily=Verdana;fontSize=8;align=center;" parent="1" vertex="1">
          <mxGeometry x="290" y="740" width="100" height="60" as="geometry" />
        </mxCell>
        <mxCell id="60e70716793133e9-48" style="edgeStyle=orthogonalEdgeStyle;rounded=0;html=1;labelBackgroundColor=none;startSize=5;endArrow=classicThin;endFill=1;endSize=5;jettySize=auto;orthogonalLoop=1;strokeWidth=1;fontFamily=Verdana;fontSize=8" parent="1" source="60e70716793133e9-18" target="60e70716793133e9-20" edge="1">
          <mxGeometry relative="1" as="geometry" />
        </mxCell>
        <mxCell id="60e70716793133e9-18" value="Add or adjust vendor costs" style="whiteSpace=wrap;html=1;rounded=0;shadow=1;labelBackgroundColor=none;strokeWidth=1;fontFamily=Verdana;fontSize=8;align=center;" parent="1" vertex="1">
          <mxGeometry x="450" y="750" width="120" height="40" as="geometry" />
        </mxCell>
        <mxCell id="60e70716793133e9-52" style="edgeStyle=orthogonalEdgeStyle;rounded=0;html=1;labelBackgroundColor=none;startSize=5;endArrow=classicThin;endFill=1;endSize=5;jettySize=auto;orthogonalLoop=1;strokeWidth=1;fontFamily=Verdana;fontSize=8" parent="1" source="60e70716793133e9-19" target="60e70716793133e9-21" edge="1">
          <mxGeometry relative="1" as="geometry" />
        </mxCell>
        <mxCell id="60e70716793133e9-19" value="Perform work&amp;nbsp;&lt;div&gt;order step&lt;/div&gt;" style="shape=trapezoid;whiteSpace=wrap;html=1;rounded=0;shadow=1;labelBackgroundColor=none;strokeWidth=1;fontFamily=Verdana;fontSize=8;align=center;flipV=1;" parent="1" vertex="1">
          <mxGeometry x="280" y="840" width="120" height="60" as="geometry" />
        </mxCell>
        <mxCell id="60e70716793133e9-49" style="edgeStyle=orthogonalEdgeStyle;rounded=0;html=1;labelBackgroundColor=none;startSize=5;endArrow=classicThin;endFill=1;endSize=5;jettySize=auto;orthogonalLoop=1;strokeWidth=1;fontFamily=Verdana;fontSize=8" parent="1" source="60e70716793133e9-20" target="60e70716793133e9-22" edge="1">
          <mxGeometry relative="1" as="geometry" />
        </mxCell>
        <mxCell id="60e70716793133e9-53" style="edgeStyle=orthogonalEdgeStyle;rounded=0;html=1;labelBackgroundColor=none;startSize=5;endArrow=classicThin;endFill=1;endSize=5;jettySize=auto;orthogonalLoop=1;strokeWidth=1;fontFamily=Verdana;fontSize=8" parent="1" source="60e70716793133e9-20" target="60e70716793133e9-27" edge="1">
          <mxGeometry relative="1" as="geometry">
            <Array as="points">
              <mxPoint x="510" y="920" />
              <mxPoint x="680" y="920" />
            </Array>
          </mxGeometry>
        </mxCell>
        <mxCell id="60e70716793133e9-20" value="Ship materials&amp;nbsp;&lt;div&gt;to vendor&lt;/div&gt;" style="rounded=1;whiteSpace=wrap;html=1;shadow=1;labelBackgroundColor=none;strokeWidth=1;fontFamily=Verdana;fontSize=8;align=center;" parent="1" vertex="1">
          <mxGeometry x="450" y="850" width="120" height="40" as="geometry" />
        </mxCell>
        <mxCell id="60e70716793133e9-51" value="Yes" style="edgeStyle=orthogonalEdgeStyle;rounded=0;html=1;labelBackgroundColor=none;startSize=5;endArrow=classicThin;endFill=1;endSize=5;jettySize=auto;orthogonalLoop=1;strokeWidth=1;fontFamily=Verdana;fontSize=8" parent="1" source="60e70716793133e9-21" target="60e70716793133e9-17" edge="1">
          <mxGeometry x="-0.6924" y="-20" relative="1" as="geometry">
            <Array as="points">
              <mxPoint x="260" y="969.9999999999998" />
              <mxPoint x="260" y="770" />
            </Array>
            <mxPoint as="offset" />
          </mxGeometry>
        </mxCell>
        <mxCell id="60e70716793133e9-54" value="No" style="edgeStyle=orthogonalEdgeStyle;rounded=0;html=1;labelBackgroundColor=none;startSize=5;endArrow=classicThin;endFill=1;endSize=5;jettySize=auto;orthogonalLoop=1;strokeWidth=1;fontFamily=Verdana;fontSize=8" parent="1" source="60e70716793133e9-21" target="60e70716793133e9-23" edge="1">
          <mxGeometry x="-1" y="-10" relative="1" as="geometry">
            <mxPoint as="offset" />
          </mxGeometry>
        </mxCell>
        <mxCell id="60e70716793133e9-21" value="Additional&amp;nbsp;&lt;div&gt;processing&amp;nbsp;&lt;/div&gt;&lt;div&gt;required?&lt;/div&gt;" style="rhombus;whiteSpace=wrap;html=1;rounded=0;shadow=1;labelBackgroundColor=none;strokeWidth=1;fontFamily=Verdana;fontSize=8;align=center;" parent="1" vertex="1">
          <mxGeometry x="290" y="940" width="100" height="60" as="geometry" />
        </mxCell>
        <mxCell id="60e70716793133e9-58" style="edgeStyle=orthogonalEdgeStyle;rounded=0;html=1;labelBackgroundColor=none;startSize=5;endArrow=classicThin;endFill=1;endSize=5;jettySize=auto;orthogonalLoop=1;strokeWidth=1;fontFamily=Verdana;fontSize=8" parent="1" source="60e70716793133e9-22" target="60e70716793133e9-24" edge="1">
          <mxGeometry relative="1" as="geometry" />
        </mxCell>
        <mxCell id="60e70716793133e9-22" value="Perform work&amp;nbsp;&lt;div&gt;order step&lt;/div&gt;" style="shape=trapezoid;whiteSpace=wrap;html=1;rounded=0;shadow=1;labelBackgroundColor=none;strokeWidth=1;fontFamily=Verdana;fontSize=8;align=center;flipV=1;" parent="1" vertex="1">
          <mxGeometry x="450" y="940" width="120" height="60" as="geometry" />
        </mxCell>
        <mxCell id="60e70716793133e9-55" style="edgeStyle=orthogonalEdgeStyle;rounded=0;html=1;labelBackgroundColor=none;startSize=5;endArrow=classicThin;endFill=1;endSize=5;jettySize=auto;orthogonalLoop=1;strokeWidth=1;fontFamily=Verdana;fontSize=8" parent="1" source="60e70716793133e9-23" target="60e70716793133e9-25" edge="1">
          <mxGeometry relative="1" as="geometry" />
        </mxCell>
        <mxCell id="60e70716793133e9-23" value="Receive info stock" style="rounded=1;whiteSpace=wrap;html=1;shadow=1;labelBackgroundColor=none;strokeWidth=1;fontFamily=Verdana;fontSize=8;align=center;" parent="1" vertex="1">
          <mxGeometry x="280" y="1040" width="120" height="40" as="geometry" />
        </mxCell>
        <mxCell id="60e70716793133e9-59" style="edgeStyle=orthogonalEdgeStyle;rounded=0;html=1;labelBackgroundColor=none;startSize=5;endArrow=classicThin;endFill=1;endSize=5;jettySize=auto;orthogonalLoop=1;strokeWidth=1;fontFamily=Verdana;fontSize=8" parent="1" source="60e70716793133e9-24" target="60e70716793133e9-26" edge="1">
          <mxGeometry relative="1" as="geometry" />
        </mxCell>
        <mxCell id="60e70716793133e9-24" value="Receive product&amp;nbsp;&lt;div&gt;from vendor&lt;/div&gt;" style="rounded=1;whiteSpace=wrap;html=1;shadow=1;labelBackgroundColor=none;strokeWidth=1;fontFamily=Verdana;fontSize=8;align=center;" parent="1" vertex="1">
          <mxGeometry x="450" y="1040" width="120" height="40" as="geometry" />
        </mxCell>
        <mxCell id="60e70716793133e9-56" style="edgeStyle=orthogonalEdgeStyle;rounded=0;html=1;labelBackgroundColor=none;startSize=5;endArrow=classicThin;endFill=1;endSize=5;jettySize=auto;orthogonalLoop=1;strokeWidth=1;fontFamily=Verdana;fontSize=8" parent="1" source="60e70716793133e9-25" target="60e70716793133e9-28" edge="1">
          <mxGeometry relative="1" as="geometry" />
        </mxCell>
        <mxCell id="60e70716793133e9-25" value="Ship product on order if needed" style="rounded=1;whiteSpace=wrap;html=1;shadow=1;labelBackgroundColor=none;strokeWidth=1;fontFamily=Verdana;fontSize=8;align=center;" parent="1" vertex="1">
          <mxGeometry x="280" y="1120" width="120" height="40" as="geometry" />
        </mxCell>
        <mxCell id="60e70716793133e9-60" value="No" style="edgeStyle=orthogonalEdgeStyle;rounded=0;html=1;labelBackgroundColor=none;startSize=5;endArrow=classicThin;endFill=1;endSize=5;jettySize=auto;orthogonalLoop=1;strokeWidth=1;fontFamily=Verdana;fontSize=8" parent="1" source="60e70716793133e9-26" target="60e70716793133e9-29" edge="1">
          <mxGeometry x="0.2" y="14" relative="1" as="geometry">
            <mxPoint x="-24" y="-10" as="offset" />
          </mxGeometry>
        </mxCell>
        <mxCell id="60e70716793133e9-61" value="Yes" style="edgeStyle=orthogonalEdgeStyle;rounded=0;html=1;labelBackgroundColor=none;startSize=5;endArrow=classicThin;endFill=1;endSize=5;jettySize=auto;orthogonalLoop=1;strokeWidth=1;fontFamily=Verdana;fontSize=8" parent="1" source="60e70716793133e9-26" target="60e70716793133e9-27" edge="1">
          <mxGeometry x="-0.6667" y="10" relative="1" as="geometry">
            <mxPoint as="offset" />
          </mxGeometry>
        </mxCell>
        <mxCell id="60e70716793133e9-26" value="Only partial&amp;nbsp;&lt;div&gt;quality&amp;nbsp;&lt;/div&gt;&lt;div&gt;received?&lt;/div&gt;" style="rhombus;whiteSpace=wrap;html=1;rounded=0;shadow=1;labelBackgroundColor=none;strokeWidth=1;fontFamily=Verdana;fontSize=8;align=center;" parent="1" vertex="1">
          <mxGeometry x="460" y="1110" width="100" height="60" as="geometry" />
        </mxCell>
        <mxCell id="60e70716793133e9-27" value="Create work&amp;nbsp;&lt;div&gt;order backorder&lt;/div&gt;" style="whiteSpace=wrap;html=1;rounded=0;shadow=1;labelBackgroundColor=none;strokeWidth=1;fontFamily=Verdana;fontSize=8;align=center;" parent="1" vertex="1">
          <mxGeometry x="620" y="1120" width="120" height="40" as="geometry" />
        </mxCell>
        <mxCell id="60e70716793133e9-57" style="edgeStyle=orthogonalEdgeStyle;rounded=0;html=1;labelBackgroundColor=none;startSize=5;endArrow=classicThin;endFill=1;endSize=5;jettySize=auto;orthogonalLoop=1;strokeWidth=1;fontFamily=Verdana;fontSize=8" parent="1" source="60e70716793133e9-28" target="60e70716793133e9-30" edge="1">
          <mxGeometry relative="1" as="geometry" />
        </mxCell>
        <mxCell id="60e70716793133e9-28" value="Change status to&lt;div&gt;Complete&lt;/div&gt;" style="whiteSpace=wrap;html=1;rounded=0;shadow=1;labelBackgroundColor=none;strokeWidth=1;fontFamily=Verdana;fontSize=8;align=center;" parent="1" vertex="1">
          <mxGeometry x="280" y="1200" width="120" height="40" as="geometry" />
        </mxCell>
        <mxCell id="60e70716793133e9-62" style="edgeStyle=orthogonalEdgeStyle;rounded=0;html=1;labelBackgroundColor=none;startSize=5;endArrow=classicThin;endFill=1;endSize=5;jettySize=auto;orthogonalLoop=1;strokeWidth=1;fontFamily=Verdana;fontSize=8" parent="1" source="60e70716793133e9-29" target="60e70716793133e9-21" edge="1">
          <mxGeometry relative="1" as="geometry">
            <Array as="points">
              <mxPoint x="430" y="1220" />
              <mxPoint x="430" y="920" />
              <mxPoint x="340" y="920" />
            </Array>
          </mxGeometry>
        </mxCell>
        <mxCell id="60e70716793133e9-29" value="Pay vendor invoice" style="rounded=1;whiteSpace=wrap;html=1;shadow=1;labelBackgroundColor=none;strokeWidth=1;fontFamily=Verdana;fontSize=8;align=center;" parent="1" vertex="1">
          <mxGeometry x="450" y="1200" width="120" height="40" as="geometry" />
        </mxCell>
        <mxCell id="60e70716793133e9-30" value="End" style="strokeWidth=1;html=1;shape=mxgraph.flowchart.terminator;whiteSpace=wrap;rounded=0;shadow=1;labelBackgroundColor=none;fontFamily=Verdana;fontSize=8;align=center;" parent="1" vertex="1">
          <mxGeometry x="310" y="1290" width="60" height="30" as="geometry" />
        </mxCell>
        <mxCell id="6LrhM2uFNjkHdCFqrpvI-88" style="edgeStyle=orthogonalEdgeStyle;rounded=0;orthogonalLoop=1;jettySize=auto;html=1;" edge="1" parent="1" source="6LrhM2uFNjkHdCFqrpvI-1">
          <mxGeometry relative="1" as="geometry">
            <mxPoint x="520" y="-230" as="targetPoint" />
          </mxGeometry>
        </mxCell>
        <mxCell id="6LrhM2uFNjkHdCFqrpvI-1" value="Start" style="rounded=1;whiteSpace=wrap;html=1;" vertex="1" parent="1">
          <mxGeometry x="465" y="-320" width="110" height="50" as="geometry" />
        </mxCell>
        <mxCell id="6LrhM2uFNjkHdCFqrpvI-2" value="Home Page" style="rounded=0;whiteSpace=wrap;html=1;" vertex="1" parent="1">
          <mxGeometry x="380" y="-220" width="290" height="60" as="geometry" />
        </mxCell>
        <mxCell id="6LrhM2uFNjkHdCFqrpvI-5" value="Restaurant Owner" style="rounded=0;whiteSpace=wrap;html=1;shadow=1;labelBackgroundColor=none;strokeWidth=1;fontFamily=Verdana;fontSize=8;align=center;" vertex="1" parent="1">
          <mxGeometry x="60" y="60" width="120" height="60" as="geometry" />
        </mxCell>
        <mxCell id="6LrhM2uFNjkHdCFqrpvI-6" value="Admin" style="rounded=0;whiteSpace=wrap;html=1;shadow=1;labelBackgroundColor=none;strokeWidth=1;fontFamily=Verdana;fontSize=8;align=center;" vertex="1" parent="1">
          <mxGeometry x="450" y="60" width="120" height="60" as="geometry" />
        </mxCell>
        <mxCell id="6LrhM2uFNjkHdCFqrpvI-7" value="" style="edgeStyle=orthogonalEdgeStyle;rounded=0;html=1;labelBackgroundColor=none;startSize=5;endArrow=none;endFill=1;endSize=5;jettySize=auto;orthogonalLoop=1;strokeWidth=1;fontFamily=Verdana;fontSize=8" edge="1" parent="1" source="60e70716793133e9-4" target="6LrhM2uFNjkHdCFqrpvI-6">
          <mxGeometry relative="1" as="geometry">
            <mxPoint x="850" y="110.00000000000023" as="sourcePoint" />
            <mxPoint x="250" y="220" as="targetPoint" />
            <Array as="points">
              <mxPoint x="910" y="40" />
              <mxPoint x="510" y="40" />
            </Array>
          </mxGeometry>
        </mxCell>
        <mxCell id="6LrhM2uFNjkHdCFqrpvI-13" value="" style="edgeStyle=elbowEdgeStyle;elbow=vertical;endArrow=classic;html=1;rounded=0;" edge="1" parent="1">
          <mxGeometry width="50" height="50" relative="1" as="geometry">
            <mxPoint x="460" y="190" as="sourcePoint" />
            <mxPoint x="510" y="130" as="targetPoint" />
            <Array as="points">
              <mxPoint x="470" y="130" />
            </Array>
          </mxGeometry>
        </mxCell>
        <mxCell id="6LrhM2uFNjkHdCFqrpvI-14" value="No" style="edgeLabel;html=1;align=center;verticalAlign=middle;resizable=0;points=[];" vertex="1" connectable="0" parent="6LrhM2uFNjkHdCFqrpvI-13">
          <mxGeometry x="0.19" y="-4" relative="1" as="geometry">
            <mxPoint y="6" as="offset" />
          </mxGeometry>
        </mxCell>
        <mxCell id="6LrhM2uFNjkHdCFqrpvI-20" style="edgeStyle=orthogonalEdgeStyle;rounded=0;html=1;labelBackgroundColor=none;startSize=5;endArrow=classicThin;endFill=1;endSize=5;jettySize=auto;orthogonalLoop=1;strokeWidth=1;fontFamily=Verdana;fontSize=8;startArrow=none;" edge="1" parent="1" target="6LrhM2uFNjkHdCFqrpvI-21">
          <mxGeometry relative="1" as="geometry">
            <mxPoint x="120" y="120" as="sourcePoint" />
            <Array as="points">
              <mxPoint x="120" y="150" />
              <mxPoint x="120" y="150" />
            </Array>
          </mxGeometry>
        </mxCell>
        <mxCell id="6LrhM2uFNjkHdCFqrpvI-21" value="Login" style="rhombus;whiteSpace=wrap;html=1;rounded=0;shadow=1;labelBackgroundColor=none;strokeWidth=1;fontFamily=Verdana;fontSize=8;align=center;" vertex="1" parent="1">
          <mxGeometry x="70" y="160" width="100" height="60" as="geometry" />
        </mxCell>
        <mxCell id="6LrhM2uFNjkHdCFqrpvI-22" value="" style="edgeStyle=elbowEdgeStyle;elbow=vertical;endArrow=classic;html=1;rounded=0;" edge="1" parent="1">
          <mxGeometry width="50" height="50" relative="1" as="geometry">
            <mxPoint x="70" y="190" as="sourcePoint" />
            <mxPoint x="120" y="130" as="targetPoint" />
            <Array as="points">
              <mxPoint x="80" y="130" />
            </Array>
          </mxGeometry>
        </mxCell>
        <mxCell id="6LrhM2uFNjkHdCFqrpvI-23" value="No" style="edgeLabel;html=1;align=center;verticalAlign=middle;resizable=0;points=[];" vertex="1" connectable="0" parent="6LrhM2uFNjkHdCFqrpvI-22">
          <mxGeometry x="0.19" y="-4" relative="1" as="geometry">
            <mxPoint y="6" as="offset" />
          </mxGeometry>
        </mxCell>
        <mxCell id="6LrhM2uFNjkHdCFqrpvI-24" value="Yes" style="edgeStyle=orthogonalEdgeStyle;rounded=0;html=1;labelBackgroundColor=none;startSize=5;endArrow=classicThin;endFill=1;endSize=5;jettySize=auto;orthogonalLoop=1;strokeWidth=1;fontFamily=Verdana;fontSize=8" edge="1" parent="1">
          <mxGeometry x="-0.7778" y="10" relative="1" as="geometry">
            <mxPoint as="offset" />
            <mxPoint x="120" y="220" as="sourcePoint" />
            <mxPoint x="10" y="320" as="targetPoint" />
            <Array as="points">
              <mxPoint x="120" y="260" />
              <mxPoint x="10" y="260" />
            </Array>
          </mxGeometry>
        </mxCell>
        <mxCell id="6LrhM2uFNjkHdCFqrpvI-25" value="Manage Food Inventory" style="whiteSpace=wrap;html=1;rounded=0;shadow=1;labelBackgroundColor=none;strokeWidth=1;fontFamily=Verdana;fontSize=8;align=center;" vertex="1" parent="1">
          <mxGeometry y="320" width="120" height="40" as="geometry" />
        </mxCell>
        <mxCell id="6LrhM2uFNjkHdCFqrpvI-30" value="" style="edgeStyle=orthogonalEdgeStyle;rounded=0;html=1;labelBackgroundColor=none;startSize=5;endArrow=none;endFill=1;endSize=5;jettySize=auto;orthogonalLoop=1;strokeWidth=1;fontFamily=Verdana;fontSize=8" edge="1" parent="1">
          <mxGeometry relative="1" as="geometry">
            <mxPoint x="510" y="40" as="sourcePoint" />
            <mxPoint x="120" y="40" as="targetPoint" />
          </mxGeometry>
        </mxCell>
        <mxCell id="6LrhM2uFNjkHdCFqrpvI-32" value="" style="edgeStyle=orthogonalEdgeStyle;rounded=0;html=1;labelBackgroundColor=none;startSize=5;endArrow=none;endFill=1;endSize=5;jettySize=auto;orthogonalLoop=1;strokeWidth=1;fontFamily=Verdana;fontSize=8" edge="1" parent="1">
          <mxGeometry relative="1" as="geometry">
            <mxPoint x="510" y="60" as="sourcePoint" />
            <mxPoint x="110" y="60" as="targetPoint" />
            <Array as="points">
              <mxPoint x="510" y="40" />
              <mxPoint x="110" y="40" />
            </Array>
          </mxGeometry>
        </mxCell>
        <mxCell id="6LrhM2uFNjkHdCFqrpvI-40" value="Logged In ?" style="rhombus;whiteSpace=wrap;html=1;rounded=0;shadow=1;labelBackgroundColor=none;strokeWidth=1;fontFamily=Verdana;fontSize=8;align=center;" vertex="1" parent="1">
          <mxGeometry x="1000" y="440" width="100" height="60" as="geometry" />
        </mxCell>
        <mxCell id="6LrhM2uFNjkHdCFqrpvI-41" value="Favourites" style="whiteSpace=wrap;html=1;rounded=0;shadow=1;labelBackgroundColor=none;strokeWidth=1;fontFamily=Verdana;fontSize=8;align=center;" vertex="1" parent="1">
          <mxGeometry x="940" y="580" width="230" height="60" as="geometry" />
        </mxCell>
        <mxCell id="6LrhM2uFNjkHdCFqrpvI-43" value="" style="edgeStyle=elbowEdgeStyle;elbow=vertical;endArrow=classic;html=1;rounded=0;exitX=0;exitY=0.5;exitDx=0;exitDy=0;entryX=0.5;entryY=1;entryDx=0;entryDy=0;" edge="1" parent="1" source="6LrhM2uFNjkHdCFqrpvI-40" target="6LrhM2uFNjkHdCFqrpvI-76">
          <mxGeometry width="50" height="50" relative="1" as="geometry">
            <mxPoint x="840" y="510" as="sourcePoint" />
            <mxPoint x="1000" y="450" as="targetPoint" />
            <Array as="points">
              <mxPoint x="850" y="450" />
            </Array>
          </mxGeometry>
        </mxCell>
        <mxCell id="6LrhM2uFNjkHdCFqrpvI-44" value="No" style="edgeLabel;html=1;align=center;verticalAlign=middle;resizable=0;points=[];" vertex="1" connectable="0" parent="6LrhM2uFNjkHdCFqrpvI-43">
          <mxGeometry x="0.19" y="-4" relative="1" as="geometry">
            <mxPoint y="6" as="offset" />
          </mxGeometry>
        </mxCell>
        <mxCell id="6LrhM2uFNjkHdCFqrpvI-61" value="Explore Restaurants" style="rounded=1;whiteSpace=wrap;html=1;" vertex="1" parent="1">
          <mxGeometry x="980" y="170" width="120" height="60" as="geometry" />
        </mxCell>
        <mxCell id="6LrhM2uFNjkHdCFqrpvI-62" style="edgeStyle=orthogonalEdgeStyle;rounded=0;orthogonalLoop=1;jettySize=auto;html=1;entryX=0;entryY=0.5;entryDx=0;entryDy=0;" edge="1" parent="1" source="6LrhM2uFNjkHdCFqrpvI-63" target="6LrhM2uFNjkHdCFqrpvI-65">
          <mxGeometry relative="1" as="geometry" />
        </mxCell>
        <mxCell id="6LrhM2uFNjkHdCFqrpvI-63" value="Select Restaurant" style="rounded=1;whiteSpace=wrap;html=1;" vertex="1" parent="1">
          <mxGeometry x="980" y="270" width="120" height="60" as="geometry" />
        </mxCell>
        <mxCell id="6LrhM2uFNjkHdCFqrpvI-64" value="" style="edgeStyle=elbowEdgeStyle;elbow=horizontal;endArrow=classic;html=1;rounded=0;" edge="1" parent="1" target="6LrhM2uFNjkHdCFqrpvI-63">
          <mxGeometry width="50" height="50" relative="1" as="geometry">
            <mxPoint x="1020" y="230" as="sourcePoint" />
            <mxPoint x="1070" y="180" as="targetPoint" />
          </mxGeometry>
        </mxCell>
        <mxCell id="6LrhM2uFNjkHdCFqrpvI-65" value="Explore Dishes" style="rounded=1;whiteSpace=wrap;html=1;" vertex="1" parent="1">
          <mxGeometry x="1180" y="270" width="120" height="60" as="geometry" />
        </mxCell>
        <mxCell id="6LrhM2uFNjkHdCFqrpvI-70" style="edgeStyle=orthogonalEdgeStyle;rounded=0;orthogonalLoop=1;jettySize=auto;html=1;" edge="1" parent="1" source="6LrhM2uFNjkHdCFqrpvI-66">
          <mxGeometry relative="1" as="geometry">
            <mxPoint x="1100" y="470" as="targetPoint" />
          </mxGeometry>
        </mxCell>
        <mxCell id="6LrhM2uFNjkHdCFqrpvI-71" value="Yes&lt;br&gt;" style="edgeLabel;html=1;align=center;verticalAlign=middle;resizable=0;points=[];" vertex="1" connectable="0" parent="6LrhM2uFNjkHdCFqrpvI-70">
          <mxGeometry x="-0.727" y="11" relative="1" as="geometry">
            <mxPoint as="offset" />
          </mxGeometry>
        </mxCell>
        <mxCell id="6LrhM2uFNjkHdCFqrpvI-66" value="Select Dish" style="rounded=1;whiteSpace=wrap;html=1;" vertex="1" parent="1">
          <mxGeometry x="1180" y="370" width="120" height="60" as="geometry" />
        </mxCell>
        <mxCell id="6LrhM2uFNjkHdCFqrpvI-67" value="" style="edgeStyle=elbowEdgeStyle;elbow=horizontal;endArrow=classic;html=1;rounded=0;" edge="1" parent="1" target="6LrhM2uFNjkHdCFqrpvI-66">
          <mxGeometry width="50" height="50" relative="1" as="geometry">
            <mxPoint x="1220" y="330" as="sourcePoint" />
            <mxPoint x="1270" y="280" as="targetPoint" />
          </mxGeometry>
        </mxCell>
        <mxCell id="6LrhM2uFNjkHdCFqrpvI-69" value="" style="edgeStyle=elbowEdgeStyle;elbow=vertical;endArrow=classic;html=1;rounded=0;entryX=0.378;entryY=0.003;entryDx=0;entryDy=0;entryPerimeter=0;" edge="1" parent="1" target="6LrhM2uFNjkHdCFqrpvI-65">
          <mxGeometry width="50" height="50" relative="1" as="geometry">
            <mxPoint x="1010" y="90" as="sourcePoint" />
            <mxPoint x="1210" y="90" as="targetPoint" />
            <Array as="points">
              <mxPoint x="1120" y="90" />
            </Array>
          </mxGeometry>
        </mxCell>
        <mxCell id="6LrhM2uFNjkHdCFqrpvI-74" value="" style="edgeStyle=elbowEdgeStyle;elbow=vertical;endArrow=classic;html=1;rounded=0;exitX=0.5;exitY=1;exitDx=0;exitDy=0;" edge="1" parent="1" source="6LrhM2uFNjkHdCFqrpvI-40">
          <mxGeometry width="50" height="50" relative="1" as="geometry">
            <mxPoint x="950" y="590" as="sourcePoint" />
            <mxPoint x="1050" y="580" as="targetPoint" />
          </mxGeometry>
        </mxCell>
        <mxCell id="6LrhM2uFNjkHdCFqrpvI-75" value="Yes" style="text;html=1;align=center;verticalAlign=middle;resizable=0;points=[];autosize=1;strokeColor=none;fillColor=none;" vertex="1" parent="1">
          <mxGeometry x="1050" y="500" width="40" height="20" as="geometry" />
        </mxCell>
        <mxCell id="6LrhM2uFNjkHdCFqrpvI-79" style="edgeStyle=orthogonalEdgeStyle;rounded=0;orthogonalLoop=1;jettySize=auto;html=1;" edge="1" parent="1" source="6LrhM2uFNjkHdCFqrpvI-76">
          <mxGeometry relative="1" as="geometry">
            <mxPoint x="990" y="150" as="targetPoint" />
          </mxGeometry>
        </mxCell>
        <mxCell id="6LrhM2uFNjkHdCFqrpvI-76" value="Login" style="rhombus;whiteSpace=wrap;html=1;rounded=0;shadow=1;labelBackgroundColor=none;strokeWidth=1;fontFamily=Verdana;fontSize=8;align=center;" vertex="1" parent="1">
          <mxGeometry x="690" y="120" width="100" height="60" as="geometry" />
        </mxCell>
        <mxCell id="6LrhM2uFNjkHdCFqrpvI-80" value="" style="endArrow=classic;html=1;rounded=0;" edge="1" parent="1">
          <mxGeometry width="50" height="50" relative="1" as="geometry">
            <mxPoint x="990" y="150" as="sourcePoint" />
            <mxPoint x="990" y="90" as="targetPoint" />
          </mxGeometry>
        </mxCell>
        <mxCell id="6LrhM2uFNjkHdCFqrpvI-81" value="Yes" style="text;html=1;align=center;verticalAlign=middle;resizable=0;points=[];autosize=1;strokeColor=none;fillColor=none;" vertex="1" parent="1">
          <mxGeometry x="800" y="130" width="40" height="20" as="geometry" />
        </mxCell>
        <mxCell id="6LrhM2uFNjkHdCFqrpvI-91" style="edgeStyle=orthogonalEdgeStyle;rounded=0;orthogonalLoop=1;jettySize=auto;html=1;" edge="1" parent="1" source="6LrhM2uFNjkHdCFqrpvI-84">
          <mxGeometry relative="1" as="geometry">
            <mxPoint x="520" y="40" as="targetPoint" />
          </mxGeometry>
        </mxCell>
        <mxCell id="6LrhM2uFNjkHdCFqrpvI-84" value="Register" style="rhombus;whiteSpace=wrap;html=1;rounded=0;shadow=1;labelBackgroundColor=none;strokeWidth=1;fontFamily=Verdana;fontSize=8;align=center;" vertex="1" parent="1">
          <mxGeometry x="470" y="-130" width="100" height="60" as="geometry" />
        </mxCell>
        <mxCell id="6LrhM2uFNjkHdCFqrpvI-85" value="" style="endArrow=classic;html=1;rounded=0;" edge="1" parent="1" target="6LrhM2uFNjkHdCFqrpvI-84">
          <mxGeometry width="50" height="50" relative="1" as="geometry">
            <mxPoint x="520" y="-160" as="sourcePoint" />
            <mxPoint x="570" y="-210" as="targetPoint" />
          </mxGeometry>
        </mxCell>
        <mxCell id="6LrhM2uFNjkHdCFqrpvI-92" value="Yes" style="text;html=1;align=center;verticalAlign=middle;resizable=0;points=[];autosize=1;strokeColor=none;fillColor=none;" vertex="1" parent="1">
          <mxGeometry x="520" y="-70" width="40" height="20" as="geometry" />
        </mxCell>
        <mxCell id="6LrhM2uFNjkHdCFqrpvI-94" value="" style="edgeStyle=elbowEdgeStyle;elbow=vertical;endArrow=classic;html=1;rounded=0;entryX=0.952;entryY=0.974;entryDx=0;entryDy=0;entryPerimeter=0;" edge="1" parent="1" target="6LrhM2uFNjkHdCFqrpvI-2">
          <mxGeometry width="50" height="50" relative="1" as="geometry">
            <mxPoint x="570" y="-100" as="sourcePoint" />
            <mxPoint x="740" y="-140" as="targetPoint" />
          </mxGeometry>
        </mxCell>
        <mxCell id="6LrhM2uFNjkHdCFqrpvI-95" value="No" style="edgeLabel;html=1;align=center;verticalAlign=middle;resizable=0;points=[];" vertex="1" connectable="0" parent="6LrhM2uFNjkHdCFqrpvI-94">
          <mxGeometry x="0.3154" y="7" relative="1" as="geometry">
            <mxPoint as="offset" />
          </mxGeometry>
        </mxCell>
      </root>
    </mxGraphModel>
  </diagram>
</mxfile>
